#!OML:ASF I:\salsa\salsa 7_09\Patient 1\Session 1\dancermale.ASF
:FULLY-SPECIFIED
:DEGREES
1873
root -3.80369 16.784 4.25189 0.980999 300.52 -720.67
lowerback -3.2776 5.47439 8.304
upperback -0.946842 6.9755 0.781411
thorax 1.73635 3.50323 -3.4179
lowerneck -7.58124 3.65898 2.41367
upperneck 32.7481 7.37274 -9.70754
head 12.5789 2.19897 -3.26298
rclavicle -7.22582e-014 6.36111e-015
rhumerus -6.81975 -29.164 -64.4545
rradius 63.5531
rwrist -32.9444
rhand -10.416 -3.50681
rfingers 7.12502
rthumb 15.583 -32.8991
lclavicle -7.22582e-014 6.36111e-015
lhumerus 71.9898 33.8846 0.760941
lradius 89.5187
lwrist -18.9647
lhand -43.2426 29.1752
lfingers 7.12502
lthumb -16.0919 58.5271
rfemur -14.6236 -19.9785 22.4518
rtibia 56.7859
rfoot -13.8585 -11.7656
rtoes -4.11868
lfemur -33.64 12.913 -32.9658
ltibia 39.3564
lfoot -1.14487 5.46494
ltoes 14.5322
1874
root -3.9694 16.8032 4.26106 1.07109 302.172 -720.675
lowerback -3.50427 5.73146 8.53407
upperback -1.07748 7.29739 0.541232
thorax 1.82546 3.66529 -3.74497
lowerneck -7.02739 3.39719 1.89618
upperneck 33.01 6.96164 -9.21015
head 12.4942 2.02497 -3.04387
rclavicle -3.81667e-014 -4.77083e-015
rhumerus -8.33241 -29.9951 -62.3527
rradius 63.1258
rwrist -34.8486
rhand -5.87728 -3.05993
rfingers 7.12502
rthumb 19.9503 -32.0558
lclavicle -3.81667e-014 -4.77083e-015
lhumerus 76.4821 36.1938 7.16328
lradius 95.1084
lwrist 11.4951
lhand -18.0301 -2.28855
lfingers 7.12502
lthumb 8.24131 27.5307
rfemur -16.2246 -20.5447 22.1714
rtibia 60.2993
rfoot -10.243 -9.88883
rtoes 1.11591
lfemur -32.5188 11.8024 -32.6442
ltibia 38.5925
lfoot -2.34367 4.72725
ltoes 13.2593
1875
root -4.12565 16.8205 4.26698 1.30247 303.799 -720.712
lowerback -3.90149 5.95282 8.71151
upperback -1.15479 7.55007 0.383698
thorax 2.04274 3.79778 -3.94053
lowerneck -6.95479 3.2693 1.36257
upperneck 33.5584 6.74895 -8.60132
head 12.6492 1.92791 -2.75591
rclavicle -4.22417e-014 -1.98785e-014
rhumerus -9.71536 -30.5168 -60.3194
rradius 62.6962
rwrist -36.0068
rhand -1.82439 -2.18877
rfingers 7.12502
rthumb 23.8418 -30.7292
lclavicle -4.22417e-014 -1.98785e-014
lhumerus 84.2737 38.7734 18.5731
lradius 102.649
lwrist 53.166
lhand 22.5102 23.1265
lfingers 7.12502
lthumb 46.8659 45.8516
rfemur -18.278 -21.1921 21.8208
rtibia 64.2285
rfoot -6.65182 -7.33393
rtoes 5.79546
lfemur -31.5939 11.0575 -32.4008
ltibia 37.8664
lfoot -3.68112 3.67559
ltoes 12.476
1876
root -4.26275 16.8313 4.26022 0.959305 305.517 -720.186
lowerback -3.9571 6.14714 8.56577
upperback -1.28669 7.82314 0.0953096
thorax 1.99415 3.93037 -4.13397
lowerneck -6.80904 3.13959 1.25073
upperneck 34.084 6.5069 -8.18342
head 12.8028 1.85202 -2.62024
rclavicle -9.24349e-015 1.98785e-014
rhumerus -11.2818 -30.9663 -58.2871
rradius 62.2416
rwrist -36.6456
rhand 0.695065 -1.37473
rfingers 7.12502
rthumb 26.256 -29.5781
lclavicle -9.24349e-015 1.98785e-014
lhumerus 106.257 37.2385 49.2349
lradius 105.521
lwrist 101.09
lhand 15.7012 85.2347
lfingers 7.12502
lthumb 40.5113 -110.304
rfemur -20.2346 -21.5123 21.0711
rtibia 67.8816
rfoot -3.60569 -4.80294
rtoes 9.66168
lfemur -30.6297 10.4602 -32.5246
ltibia 37.1347
lfoot -4.74919 2.2196
ltoes 11.2414
1877
root -4.38513 16.8282 4.24663 0.220689 307.324 -719.295
lowerback -3.7416 6.29245 8.27513
upperback -1.44522 8.06832 -0.342074
thorax 1.76658 4.04371 -4.43816
lowerneck -6.55549 2.95549 1.55578
upperneck 34.5201 6.21319 -8.1417
head 12.9229 1.76731 -2.71197
rclavicle -6.53505e-014 6.36111e-015
rhumerus -12.8985 -31.2275 -56.35
rradius 61.6914
rwrist -37.2393
rhand 2.83499 -0.734682
rfingers 7.12502
rthumb 28.3029 -28.6162
lclavicle -6.53505e-014 6.36111e-015
lhumerus 105.555 38.2855 48.3113
lradius 109.703
lwrist 98.1324
lhand 14.283 79.9775
lfingers 7.12502
lthumb 39.1763 -105.447
rfemur -22.0055 -21.9649 19.8429
rtibia 71.1652
rfoot -1.56138 -2.06731
rtoes 13.5207
lfemur -29.6071 9.57756 -32.8937
ltibia 36.3721
lfoot -5.55645 1.04241
ltoes 11.2076
1878
root -4.49933 16.8133 4.22225 -0.502951 309.198 -718.443
lowerback -3.48197 6.30298 8.01728
upperback -1.51226 8.12917 -0.749609
thorax 1.58533 4.06977 -4.74676
lowerneck -6.37645 2.87551 1.66926
upperneck 34.8595 6.1057 -8.09933
head 13.0261 1.74234 -2.7413
rclavicle 7.12643e-014 -1.59028e-015
rhumerus -14.2621 -31.1532 -54.6978
rradius 61.2715
rwrist -38.0139
rhand 6.707 -0.020401
rfingers 7.12502
rthumb 31.9967 -27.227
lclavicle 7.12643e-014 -1.59028e-015
lhumerus 104.213 39.6935 46.6242
lradius 113.96
lwrist 93.5249
lhand 12.8535 74.3644
lfingers 7.12502
lthumb 37.8275 -100.21
rfemur -23.3994 -22.2537 18.5647
rtibia 73.8169
rfoot -0.254777 0.812073
rtoes 16.8592
lfemur -28.6275 8.39112 -33.301
ltibia 35.6728
lfoot -6.5309 0.278126
ltoes 12.3719
1879
root -4.60318 16.7974 4.19031 -0.759825 311.154 -717.933
lowerback -3.45058 6.32134 8.01987
upperback -1.58135 8.16647 -1.10036
thorax 1.55296 4.08841 -5.11369
lowerneck -6.16099 2.81354 1.6442
upperneck 35.1681 6.02741 -7.98665
head 13.1041 1.72379 -2.71297
rclavicle -8.77137e-014 1.74931e-014
rhumerus -15.702 -30.9201 -53.0595
rradius 61.1472
rwrist -39.1657
rhand 10.0634 0.530132
rfingers 7.12502
rthumb 35.1864 -25.9822
lclavicle -8.77137e-014 1.74931e-014
lhumerus 102.399 41.1705 44.5364
lradius 118.038
lwrist 87.7361
lhand 11.5439 68.9466
lfingers 7.12502
lthumb 36.5892 -95.1162
rfemur -24.5971 -21.8484 17.731
rtibia 75.78
rfoot -3.08043 -0.629243
rtoes 11.9036
lfemur -27.9806 7.06896 -33.6316
ltibia 35.1336
lfoot -7.46263 -0.379152
ltoes 13.0388
